# xmcd CD database file
#
# Track frame offsets:
#	150
#	21168
#	43855
#	61518
#	75880
#	94295
#	115870
#	138118
#	153543
#	172293
#
# Disc length: 2551 seconds
#
# Revision: 0
# Processed by: cddbd v1.5.2PL0 Copyright (c) Steve Scherf et al.
# Submitted via: CDex 1.70beta2
#
DISCID=7809f50a
DTITLE=Kevin Johnson - A Man Of The 20th Century
DYEAR=1976
DGENRE=Country
TTITLE0=Grab The Money And Run
TTITLE1=Scotty
TTITLE2=Ball Of Motivation
TTITLE3=I Knew You Sunset
TTITLE4=Stay And Dance The Night Away
TTITLE5=Over The Hills And Far Away
TTITLE6=Sunday Morning Roses
TTITLE7=Someday Sam
TTITLE8=Hello Dusty Road
TTITLE9=Man Of The 20th Century
EXTD=YEAR: 1976
EXTT0=
EXTT1=
EXTT2=
EXTT3=
EXTT4=
EXTT5=
EXTT6=
EXTT7=
EXTT8=
EXTT9=
PLAYORDER=
